<?xml version="1.0" encoding="UTF-8"?>
<svg xmlns="http://www.w3.org/2000/svg" width="900" height="1021.98" viewBox="-0.807107 -0.916497 1.61421 1.83299">
  <!-- rvegen 3D RVE; orthographic axonometric projection -->
  <circle cx="0.094797" cy="-0.078006" r="0.093245" fill="#1f77b4" stroke="#222" stroke-width="0.003"/>
  <circle cx="-0.23351" cy="0.045712" r="0.092797" fill="#7f7f7f" stroke="#222" stroke-width="0.003"/>
  <circle cx="-0.038082" cy="0.069532" r="0.088624" fill="#2ca02c" stroke="#222" stroke-width="0.003"/>
  <circle cx="0.12948" cy="-0.20398" r="0.071072" fill="#1f77b4" stroke="#222" stroke-width="0.003"/>
  <circle cx="-0.16886" cy="-0.14859" r="0.064763" fill="#9467bd" stroke="#222" stroke-width="0.003"/>
  <circle cx="-0.028614" cy="-0.2959" r="0.074624" fill="#e377c2" stroke="#222" stroke-width="0.003"/>
  <circle cx="0.1268" cy="0.14029" r="0.092989" fill="#8c564b" stroke="#222" stroke-width="0.003"/>
  <circle cx="-0.026432" cy="-0.4418" r="0.063638" fill="#2ca02c" stroke="#222" stroke-width="0.003"/>
  <circle cx="-0.1129" cy="0.24719" r="0.079105" fill="#8c564b" stroke="#222" stroke-width="0.003"/>
  <circle cx="0.29798" cy="0.095938" r="0.076409" fill="#ff7f0e" stroke="#222" stroke-width="0.003"/>
  <circle cx="0.032353" cy="-0.15903" r="0.061373" fill="#d62728" stroke="#222" stroke-width="0.003"/>
  <circle cx="-0.34711" cy="0.15623" r="0.069828" fill="#bcbd22" stroke="#222" stroke-width="0.003"/>
  <circle cx="-0.18803" cy="-0.13308" r="0.06547" fill="#bcbd22" stroke="#222" stroke-width="0.003"/>
  <circle cx="-0.35222" cy="0.30599" r="0.07649" fill="#d62728" stroke="#222" stroke-width="0.003"/>
  <circle cx="0.50792" cy="0.18468" r="0.08011" fill="#d62728" stroke="#222" stroke-width="0.003"/>
  <circle cx="-0.06378" cy="-0.13605" r="0.066091" fill="#1f77b4" stroke="#222" stroke-width="0.003"/>
  <circle cx="-0.23183" cy="-0.33197" r="0.073108" fill="#17becf" stroke="#222" stroke-width="0.003"/>
  <circle cx="-0.30824" cy="-0.18497" r="0.067799" fill="#8c564b" stroke="#222" stroke-width="0.003"/>
  <circle cx="-0.089341" cy="0.2049" r="0.074599" fill="#7f7f7f" stroke="#222" stroke-width="0.003"/>
  <circle cx="0.29933" cy="-0.28527" r="0.094397" fill="#2ca02c" stroke="#222" stroke-width="0.003"/>
  <circle cx="-0.10743" cy="0.40524" r="0.077209" fill="#9467bd" stroke="#222" stroke-width="0.003"/>
  <circle cx="0.17517" cy="0.19496" r="0.095601" fill="#9467bd" stroke="#222" stroke-width="0.003"/>
  <circle cx="-0.08652" cy="-0.31071" r="0.078848" fill="#17becf" stroke="#222" stroke-width="0.003"/>
  <circle cx="-0.0032561" cy="0.063861" r="0.079427" fill="#e377c2" stroke="#222" stroke-width="0.003"/>
  <circle cx="-0.33697" cy="0.23455" r="0.085128" fill="#8c564b" stroke="#222" stroke-width="0.003"/>
  <circle cx="0.12494" cy="-0.16849" r="0.076184" fill="#e377c2" stroke="#222" stroke-width="0.003"/>
  <circle cx="0.34912" cy="-0.017892" r="0.090336" fill="#7f7f7f" stroke="#222" stroke-width="0.003"/>
  <circle cx="0.030946" cy="0.40065" r="0.071114" fill="#e377c2" stroke="#222" stroke-width="0.003"/>
  <circle cx="0.13982" cy="0.050155" r="0.064228" fill="#bcbd22" stroke="#222" stroke-width="0.003"/>
  <circle cx="-0.46544" cy="-0.20426" r="0.061779" fill="#ff7f0e" stroke="#222" stroke-width="0.003"/>
  <circle cx="-0.30215" cy="-0.055633" r="0.090362" fill="#2ca02c" stroke="#222" stroke-width="0.003"/>
  <circle cx="-0.53585" cy="-0.034188" r="0.083339" fill="#9467bd" stroke="#222" stroke-width="0.003"/>
  <circle cx="-0.052999" cy="0.51819" r="0.068279" fill="#1f77b4" stroke="#222" stroke-width="0.003"/>
  <circle cx="-0.043139" cy="0.22987" r="0.060646" fill="#d62728" stroke="#222" stroke-width="0.003"/>
  <circle cx="0.18784" cy="-0.059264" r="0.086686" fill="#8c564b" stroke="#222" stroke-width="0.003"/>
  <circle cx="0.05389" cy="-0.37428" r="0.066586" fill="#9467bd" stroke="#222" stroke-width="0.003"/>
  <circle cx="-0.24464" cy="0.25763" r="0.071532" fill="#2ca02c" stroke="#222" stroke-width="0.003"/>
  <circle cx="0.24584" cy="0.26807" r="0.079548" fill="#e377c2" stroke="#222" stroke-width="0.003"/>
  <circle cx="-0.08992" cy="-0.24868" r="0.074083" fill="#7f7f7f" stroke="#222" stroke-width="0.003"/>
  <circle cx="-0.094882" cy="0.068748" r="0.098451" fill="#7f7f7f" stroke="#222" stroke-width="0.003"/>
  <circle cx="-0.012416" cy="0.39701" r="0.096905" fill="#ff7f0e" stroke="#222" stroke-width="0.003"/>
  <circle cx="0.33568" cy="-0.28988" r="0.092196" fill="#bcbd22" stroke="#222" stroke-width="0.003"/>
  <circle cx="-0.30966" cy="-0.1868" r="0.061815" fill="#17becf" stroke="#222" stroke-width="0.003"/>
  <circle cx="0.20647" cy="0.14882" r="0.097416" fill="#17becf" stroke="#222" stroke-width="0.003"/>
  <circle cx="0.04388" cy="-0.21896" r="0.08641" fill="#ff7f0e" stroke="#222" stroke-width="0.003"/>
  <circle cx="0.013693" cy="0.13826" r="0.060078" fill="#ff7f0e" stroke="#222" stroke-width="0.003"/>
  <circle cx="0.19937" cy="-0.085084" r="0.08413" fill="#d62728" stroke="#222" stroke-width="0.003"/>
  <circle cx="-0.021164" cy="-0.041372" r="0.067271" fill="#1f77b4" stroke="#222" stroke-width="0.003"/>
  <line x1="0" y1="-0" x2="0.707107" y2="0.408248" stroke="#444" stroke-width="0.005"/>
  <line x1="0" y1="-0.816497" x2="0.707107" y2="-0.408248" stroke="#444" stroke-width="0.005"/>
  <line x1="-0.707107" y1="0.408248" x2="0" y2="0.816497" stroke="#444" stroke-width="0.005"/>
  <line x1="-0.707107" y1="-0.408248" x2="0" y2="-0" stroke="#444" stroke-width="0.005"/>
  <line x1="0" y1="-0" x2="0" y2="-0.816497" stroke="#444" stroke-width="0.005"/>
  <line x1="0.707107" y1="0.408248" x2="0.707107" y2="-0.408248" stroke="#444" stroke-width="0.005"/>
  <line x1="-0.707107" y1="0.408248" x2="-0.707107" y2="-0.408248" stroke="#444" stroke-width="0.005"/>
  <line x1="0" y1="0.816497" x2="0" y2="-0" stroke="#444" stroke-width="0.005"/>
  <line x1="0" y1="-0" x2="-0.707107" y2="0.408248" stroke="#444" stroke-width="0.005"/>
  <line x1="0.707107" y1="0.408248" x2="0" y2="0.816497" stroke="#444" stroke-width="0.005"/>
  <line x1="0" y1="-0.816497" x2="-0.707107" y2="-0.408248" stroke="#444" stroke-width="0.005"/>
  <line x1="0.707107" y1="-0.408248" x2="0" y2="-0" stroke="#444" stroke-width="0.005"/>
</svg>
