<?xml version="1.0" encoding="UTF-8"?>
<svg xmlns="http://www.w3.org/2000/svg" width="900" height="1021.98" viewBox="-0.807107 -0.916497 1.61421 1.83299">
  <!-- rvegen 3D RVE; orthographic axonometric projection -->
  <circle cx="-0.00093385" cy="-0.02681" r="0.064732" fill="#ff7f0e" stroke="#222" stroke-width="0.003"/>
  <polygon points="0.15213,0.02346 0.085522,0.061918 0.17205,0.11187 0.23866,0.073416 " fill="#8c564b" fill-opacity="0.85" stroke="#222" stroke-width="0.003"/>
  <polygon points="0.15213,0.02346 0.15213,-0.078216 0.085522,-0.039758 0.085522,0.061918 " fill="#8c564b" fill-opacity="0.85" stroke="#222" stroke-width="0.003"/>
  <circle cx="-0.098101" cy="0.12434" r="0.060229" fill="#2ca02c" stroke="#222" stroke-width="0.003"/>
  <polygon points="0.018106,-0.23666 0.018106,-0.31982 -0.04743,-0.28198 -0.04743,-0.19882 " fill="#7f7f7f" fill-opacity="0.85" stroke="#222" stroke-width="0.003"/>
  <polygon points="0.15213,0.02346 0.23866,0.073416 0.23866,-0.02826 0.15213,-0.078216 " fill="#8c564b" fill-opacity="0.85" stroke="#222" stroke-width="0.003"/>
  <polygon points="0.018106,-0.23666 -0.04743,-0.19882 0.02567,-0.15662 0.091205,-0.19446 " fill="#7f7f7f" fill-opacity="0.85" stroke="#222" stroke-width="0.003"/>
  <polygon points="0.018106,-0.23666 0.091205,-0.19446 0.091205,-0.27761 0.018106,-0.31982 " fill="#7f7f7f" fill-opacity="0.85" stroke="#222" stroke-width="0.003"/>
  <circle cx="0.032117" cy="-0.054628" r="0.054467" fill="#7f7f7f" stroke="#222" stroke-width="0.003"/>
  <polygon points="0.0019066,-0.3853 0.0019066,-0.47538 -0.070157,-0.43377 -0.070157,-0.34369 " fill="#2ca02c" fill-opacity="0.85" stroke="#222" stroke-width="0.003"/>
  <circle cx="-0.12242" cy="-0.010706" r="0.052991" fill="#7f7f7f" stroke="#222" stroke-width="0.003"/>
  <circle cx="-0.2666" cy="0.15493" r="0.058745" fill="#9467bd" stroke="#222" stroke-width="0.003"/>
  <polygon points="0.085522,0.061918 0.085522,-0.039758 0.17205,0.010198 0.17205,0.11187 " fill="#8c564b" fill-opacity="0.85" stroke="#222" stroke-width="0.003"/>
  <polygon points="-0.04743,-0.19882 -0.04743,-0.28198 0.02567,-0.23978 0.02567,-0.15662 " fill="#7f7f7f" fill-opacity="0.85" stroke="#222" stroke-width="0.003"/>
  <polygon points="0.018106,-0.31982 0.091205,-0.27761 0.02567,-0.23978 -0.04743,-0.28198 " fill="#7f7f7f" fill-opacity="0.85" stroke="#222" stroke-width="0.003"/>
  <polygon points="0.091205,-0.19446 0.02567,-0.15662 0.02567,-0.23978 0.091205,-0.27761 " fill="#7f7f7f" fill-opacity="0.85" stroke="#222" stroke-width="0.003"/>
  <polygon points="0.0019066,-0.3853 -0.070157,-0.34369 0.030917,-0.28534 0.10298,-0.32694 " fill="#2ca02c" fill-opacity="0.85" stroke="#222" stroke-width="0.003"/>
  <polygon points="0.23866,0.073416 0.17205,0.11187 0.17205,0.010198 0.23866,-0.02826 " fill="#8c564b" fill-opacity="0.85" stroke="#222" stroke-width="0.003"/>
  <polygon points="0.15213,-0.078216 0.23866,-0.02826 0.17205,0.010198 0.085522,-0.039758 " fill="#8c564b" fill-opacity="0.85" stroke="#222" stroke-width="0.003"/>
  <polygon points="0.0019066,-0.3853 0.10298,-0.32694 0.10298,-0.41702 0.0019066,-0.47538 " fill="#2ca02c" fill-opacity="0.85" stroke="#222" stroke-width="0.003"/>
  <circle cx="0.015926" cy="0.12763" r="0.067306" fill="#9467bd" stroke="#222" stroke-width="0.003"/>
  <polygon points="-0.37391,0.2028 -0.45296,0.24845 -0.37191,0.29524 -0.29285,0.2496 " fill="#d62728" fill-opacity="0.85" stroke="#222" stroke-width="0.003"/>
  <polygon points="-0.37391,0.2028 -0.37391,0.089307 -0.45296,0.13495 -0.45296,0.24845 " fill="#d62728" fill-opacity="0.85" stroke="#222" stroke-width="0.003"/>
  <polygon points="-0.37391,0.2028 -0.29285,0.2496 -0.29285,0.13611 -0.37391,0.089307 " fill="#d62728" fill-opacity="0.85" stroke="#222" stroke-width="0.003"/>
  <circle cx="-0.1258" cy="0.097951" r="0.051857" fill="#17becf" stroke="#222" stroke-width="0.003"/>
  <polygon points="-0.070157,-0.34369 -0.070157,-0.43377 0.030917,-0.37542 0.030917,-0.28534 " fill="#2ca02c" fill-opacity="0.85" stroke="#222" stroke-width="0.003"/>
  <polygon points="0.0019066,-0.47538 0.10298,-0.41702 0.030917,-0.37542 -0.070157,-0.43377 " fill="#2ca02c" fill-opacity="0.85" stroke="#222" stroke-width="0.003"/>
  <circle cx="0.18478" cy="0.13448" r="0.061118" fill="#bcbd22" stroke="#222" stroke-width="0.003"/>
  <polygon points="0.10298,-0.32694 0.030917,-0.28534 0.030917,-0.37542 0.10298,-0.41702 " fill="#2ca02c" fill-opacity="0.85" stroke="#222" stroke-width="0.003"/>
  <polygon points="-0.10142,-0.24921 -0.10142,-0.33245 -0.17582,-0.2895 -0.17582,-0.20626 " fill="#1f77b4" fill-opacity="0.85" stroke="#222" stroke-width="0.003"/>
  <circle cx="0.01373" cy="0.023064" r="0.053763" fill="#2ca02c" stroke="#222" stroke-width="0.003"/>
  <polygon points="-0.10142,-0.24921 -0.015956,-0.19986 -0.015956,-0.2831 -0.10142,-0.33245 " fill="#1f77b4" fill-opacity="0.85" stroke="#222" stroke-width="0.003"/>
  <polygon points="-0.1795,0.23227 -0.25076,0.27341 -0.17454,0.31742 -0.10328,0.27628 " fill="#bcbd22" fill-opacity="0.85" stroke="#222" stroke-width="0.003"/>
  <polygon points="-0.10142,-0.24921 -0.17582,-0.20626 -0.090348,-0.15691 -0.015956,-0.19986 " fill="#1f77b4" fill-opacity="0.85" stroke="#222" stroke-width="0.003"/>
  <polygon points="-0.1795,0.23227 -0.1795,0.12895 -0.25076,0.17009 -0.25076,0.27341 " fill="#bcbd22" fill-opacity="0.85" stroke="#222" stroke-width="0.003"/>
  <polygon points="-0.45296,0.24845 -0.45296,0.13495 -0.37191,0.18175 -0.37191,0.29524 " fill="#d62728" fill-opacity="0.85" stroke="#222" stroke-width="0.003"/>
  <polygon points="-0.29285,0.2496 -0.37191,0.29524 -0.37191,0.18175 -0.29285,0.13611 " fill="#d62728" fill-opacity="0.85" stroke="#222" stroke-width="0.003"/>
  <polygon points="-0.1795,0.23227 -0.10328,0.27628 -0.10328,0.17296 -0.1795,0.12895 " fill="#bcbd22" fill-opacity="0.85" stroke="#222" stroke-width="0.003"/>
  <polygon points="-0.37391,0.089307 -0.29285,0.13611 -0.37191,0.18175 -0.45296,0.13495 " fill="#d62728" fill-opacity="0.85" stroke="#222" stroke-width="0.003"/>
  <polygon points="0.23226,0.28318 0.23226,0.16997 0.16766,0.20726 0.16766,0.32047 " fill="#ff7f0e" fill-opacity="0.85" stroke="#222" stroke-width="0.003"/>
  <polygon points="0.23226,0.28318 0.16766,0.32047 0.26611,0.37731 0.3307,0.34002 " fill="#ff7f0e" fill-opacity="0.85" stroke="#222" stroke-width="0.003"/>
  <circle cx="0.16308" cy="-0.24563" r="0.065195" fill="#e377c2" stroke="#222" stroke-width="0.003"/>
  <polygon points="-0.26931,-0.11849 -0.26931,-0.18485 -0.33208,-0.14861 -0.33208,-0.082244 " fill="#bcbd22" fill-opacity="0.85" stroke="#222" stroke-width="0.003"/>
  <polygon points="0.23226,0.28318 0.3307,0.34002 0.3307,0.22681 0.23226,0.16997 " fill="#ff7f0e" fill-opacity="0.85" stroke="#222" stroke-width="0.003"/>
  <polygon points="-0.23476,0.095891 -0.23476,-0.002949 -0.31704,0.044557 -0.31704,0.1434 " fill="#ff7f0e" fill-opacity="0.85" stroke="#222" stroke-width="0.003"/>
  <polygon points="-0.26931,-0.11849 -0.18932,-0.072302 -0.18932,-0.13866 -0.26931,-0.18485 " fill="#bcbd22" fill-opacity="0.85" stroke="#222" stroke-width="0.003"/>
  <circle cx="0.21671" cy="-0.0014105" r="0.050924" fill="#e377c2" stroke="#222" stroke-width="0.003"/>
  <polygon points="-0.23476,0.095891 -0.31704,0.1434 -0.22833,0.19461 -0.14605,0.14711 " fill="#ff7f0e" fill-opacity="0.85" stroke="#222" stroke-width="0.003"/>
  <polygon points="-0.33504,0.28505 -0.33504,0.19109 -0.39056,0.22315 -0.39056,0.31711 " fill="#d62728" fill-opacity="0.85" stroke="#222" stroke-width="0.003"/>
  <polygon points="-0.26931,-0.11849 -0.33208,-0.082244 -0.25209,-0.036061 -0.18932,-0.072302 " fill="#bcbd22" fill-opacity="0.85" stroke="#222" stroke-width="0.003"/>
  <polygon points="-0.23476,0.095891 -0.14605,0.14711 -0.14605,0.048267 -0.23476,-0.002949 " fill="#ff7f0e" fill-opacity="0.85" stroke="#222" stroke-width="0.003"/>
  <polygon points="-0.33504,0.28505 -0.39056,0.31711 -0.30497,0.36653 -0.24945,0.33447 " fill="#d62728" fill-opacity="0.85" stroke="#222" stroke-width="0.003"/>
  <polygon points="-0.33504,0.28505 -0.24945,0.33447 -0.24945,0.2405 -0.33504,0.19109 " fill="#d62728" fill-opacity="0.85" stroke="#222" stroke-width="0.003"/>
  <circle cx="0.0074156" cy="-0.45599" r="0.053664" fill="#d62728" stroke="#222" stroke-width="0.003"/>
  <polygon points="-0.10142,-0.33245 -0.015956,-0.2831 -0.090348,-0.24015 -0.17582,-0.2895 " fill="#1f77b4" fill-opacity="0.85" stroke="#222" stroke-width="0.003"/>
  <polygon points="-0.17582,-0.20626 -0.17582,-0.2895 -0.090348,-0.24015 -0.090348,-0.15691 " fill="#1f77b4" fill-opacity="0.85" stroke="#222" stroke-width="0.003"/>
  <polygon points="-0.015956,-0.19986 -0.090348,-0.15691 -0.090348,-0.24015 -0.015956,-0.2831 " fill="#1f77b4" fill-opacity="0.85" stroke="#222" stroke-width="0.003"/>
  <polygon points="-0.25076,0.27341 -0.25076,0.17009 -0.17454,0.2141 -0.17454,0.31742 " fill="#bcbd22" fill-opacity="0.85" stroke="#222" stroke-width="0.003"/>
  <polygon points="-0.10328,0.27628 -0.17454,0.31742 -0.17454,0.2141 -0.10328,0.17296 " fill="#bcbd22" fill-opacity="0.85" stroke="#222" stroke-width="0.003"/>
  <polygon points="-0.1795,0.12895 -0.10328,0.17296 -0.17454,0.2141 -0.25076,0.17009 " fill="#bcbd22" fill-opacity="0.85" stroke="#222" stroke-width="0.003"/>
  <circle cx="0.45932" cy="0.21373" r="0.079275" fill="#9467bd" stroke="#222" stroke-width="0.003"/>
  <polygon points="0.16766,0.32047 0.16766,0.20726 0.26611,0.2641 0.26611,0.37731 " fill="#ff7f0e" fill-opacity="0.85" stroke="#222" stroke-width="0.003"/>
  <polygon points="-0.26931,-0.18485 -0.18932,-0.13866 -0.25209,-0.10242 -0.33208,-0.14861 " fill="#bcbd22" fill-opacity="0.85" stroke="#222" stroke-width="0.003"/>
  <polygon points="-0.33208,-0.082244 -0.33208,-0.14861 -0.25209,-0.10242 -0.25209,-0.036061 " fill="#bcbd22" fill-opacity="0.85" stroke="#222" stroke-width="0.003"/>
  <polygon points="0.20415,-0.1492 0.20415,-0.25936 0.13361,-0.21864 0.13361,-0.10847 " fill="#17becf" fill-opacity="0.85" stroke="#222" stroke-width="0.003"/>
  <polygon points="0.20415,-0.1492 0.13361,-0.10847 0.23988,-0.047119 0.31042,-0.087844 " fill="#17becf" fill-opacity="0.85" stroke="#222" stroke-width="0.003"/>
  <polygon points="-0.18932,-0.072302 -0.25209,-0.036061 -0.25209,-0.10242 -0.18932,-0.13866 " fill="#bcbd22" fill-opacity="0.85" stroke="#222" stroke-width="0.003"/>
  <polygon points="-0.39056,0.31711 -0.39056,0.22315 -0.30497,0.27256 -0.30497,0.36653 " fill="#d62728" fill-opacity="0.85" stroke="#222" stroke-width="0.003"/>
  <polygon points="0.23226,0.16997 0.3307,0.22681 0.26611,0.2641 0.16766,0.20726 " fill="#ff7f0e" fill-opacity="0.85" stroke="#222" stroke-width="0.003"/>
  <polygon points="0.3307,0.34002 0.26611,0.37731 0.26611,0.2641 0.3307,0.22681 " fill="#ff7f0e" fill-opacity="0.85" stroke="#222" stroke-width="0.003"/>
  <polygon points="0.20415,-0.1492 0.31042,-0.087844 0.31042,-0.19801 0.20415,-0.25936 " fill="#17becf" fill-opacity="0.85" stroke="#222" stroke-width="0.003"/>
  <polygon points="-0.31704,0.1434 -0.31704,0.044557 -0.22833,0.095773 -0.22833,0.19461 " fill="#ff7f0e" fill-opacity="0.85" stroke="#222" stroke-width="0.003"/>
  <polygon points="-0.33504,0.19109 -0.24945,0.2405 -0.30497,0.27256 -0.39056,0.22315 " fill="#d62728" fill-opacity="0.85" stroke="#222" stroke-width="0.003"/>
  <polygon points="-0.23476,-0.002949 -0.14605,0.048267 -0.22833,0.095773 -0.31704,0.044557 " fill="#ff7f0e" fill-opacity="0.85" stroke="#222" stroke-width="0.003"/>
  <polygon points="-0.24945,0.33447 -0.30497,0.36653 -0.30497,0.27256 -0.24945,0.2405 " fill="#d62728" fill-opacity="0.85" stroke="#222" stroke-width="0.003"/>
  <polygon points="-0.14605,0.14711 -0.22833,0.19461 -0.22833,0.095773 -0.14605,0.048267 " fill="#ff7f0e" fill-opacity="0.85" stroke="#222" stroke-width="0.003"/>
  <circle cx="-0.061167" cy="-0.10998" r="0.054702" fill="#ff7f0e" stroke="#222" stroke-width="0.003"/>
  <polygon points="-0.17211,-0.26881 -0.17211,-0.34413 -0.22801,-0.31186 -0.22801,-0.23654 " fill="#17becf" fill-opacity="0.85" stroke="#222" stroke-width="0.003"/>
  <circle cx="0.024742" cy="0.024177" r="0.05042" fill="#8c564b" stroke="#222" stroke-width="0.003"/>
  <polygon points="0.037052,0.21216 0.037052,0.10055 -0.025261,0.13653 -0.025261,0.24813 " fill="#7f7f7f" fill-opacity="0.85" stroke="#222" stroke-width="0.003"/>
  <polygon points="0.037052,0.21216 -0.025261,0.24813 0.07694,0.30714 0.13925,0.27116 " fill="#7f7f7f" fill-opacity="0.85" stroke="#222" stroke-width="0.003"/>
  <polygon points="-0.10159,0.3849 -0.15235,0.41421 -0.077118,0.45764 -0.026362,0.42834 " fill="#d62728" fill-opacity="0.85" stroke="#222" stroke-width="0.003"/>
  <polygon points="0.24227,0.039101 0.17242,0.079424 0.24587,0.12183 0.31571,0.081506 " fill="#bcbd22" fill-opacity="0.85" stroke="#222" stroke-width="0.003"/>
  <circle cx="0.046919" cy="-0.36401" r="0.053813" fill="#e377c2" stroke="#222" stroke-width="0.003"/>
  <polygon points="-0.17211,-0.26881 -0.22801,-0.23654 -0.12843,-0.17905 -0.072526,-0.21132 " fill="#17becf" fill-opacity="0.85" stroke="#222" stroke-width="0.003"/>
  <polygon points="0.24227,0.039101 0.24227,-0.054619 0.17242,-0.014296 0.17242,0.079424 " fill="#bcbd22" fill-opacity="0.85" stroke="#222" stroke-width="0.003"/>
  <polygon points="-0.17211,-0.26881 -0.072526,-0.21132 -0.072526,-0.28664 -0.17211,-0.34413 " fill="#17becf" fill-opacity="0.85" stroke="#222" stroke-width="0.003"/>
  <polygon points="0.24227,0.039101 0.31571,0.081506 0.31571,-0.012214 0.24227,-0.054619 " fill="#bcbd22" fill-opacity="0.85" stroke="#222" stroke-width="0.003"/>
  <polygon points="0.037052,0.21216 0.13925,0.27116 0.13925,0.15956 0.037052,0.10055 " fill="#7f7f7f" fill-opacity="0.85" stroke="#222" stroke-width="0.003"/>
  <polygon points="-0.10159,0.3849 -0.10159,0.27242 -0.15235,0.30172 -0.15235,0.41421 " fill="#d62728" fill-opacity="0.85" stroke="#222" stroke-width="0.003"/>
  <polygon points="-0.10159,0.3849 -0.026362,0.42834 -0.026362,0.31585 -0.10159,0.27242 " fill="#d62728" fill-opacity="0.85" stroke="#222" stroke-width="0.003"/>
  <polygon points="-0.31908,-0.039488 -0.31908,-0.12787 -0.396,-0.08346 -0.396,0.0049204 " fill="#17becf" fill-opacity="0.85" stroke="#222" stroke-width="0.003"/>
  <polygon points="-0.31908,-0.039488 -0.24152,0.0052877 -0.24152,-0.083093 -0.31908,-0.12787 " fill="#17becf" fill-opacity="0.85" stroke="#222" stroke-width="0.003"/>
  <polygon points="-0.31908,-0.039488 -0.396,0.0049204 -0.31844,0.049696 -0.24152,0.0052877 " fill="#17becf" fill-opacity="0.85" stroke="#222" stroke-width="0.003"/>
  <circle cx="-0.11846" cy="-0.41188" r="0.058483" fill="#2ca02c" stroke="#222" stroke-width="0.003"/>
  <polygon points="0.13361,-0.10847 0.13361,-0.21864 0.23988,-0.15728 0.23988,-0.047119 " fill="#17becf" fill-opacity="0.85" stroke="#222" stroke-width="0.003"/>
  <circle cx="-0.36233" cy="0.15677" r="0.070218" fill="#ff7f0e" stroke="#222" stroke-width="0.003"/>
  <polygon points="-0.48839,0.31222 -0.48839,0.22306 -0.5654,0.26752 -0.5654,0.35668 " fill="#8c564b" fill-opacity="0.85" stroke="#222" stroke-width="0.003"/>
  <polygon points="-0.044219,-0.59204 0.038563,-0.54425 0.038563,-0.6157 -0.044219,-0.66349 " fill="#bcbd22" fill-opacity="0.85" stroke="#222" stroke-width="0.003"/>
  <polygon points="-0.044219,-0.59204 -0.044219,-0.66349 -0.12707,-0.61566 -0.12707,-0.54421 " fill="#bcbd22" fill-opacity="0.85" stroke="#222" stroke-width="0.003"/>
  <polygon points="0.20415,-0.25936 0.31042,-0.19801 0.23988,-0.15728 0.13361,-0.21864 " fill="#17becf" fill-opacity="0.85" stroke="#222" stroke-width="0.003"/>
  <polygon points="0.31042,-0.087844 0.23988,-0.047119 0.23988,-0.15728 0.31042,-0.19801 " fill="#17becf" fill-opacity="0.85" stroke="#222" stroke-width="0.003"/>
  <polygon points="-0.22801,-0.23654 -0.22801,-0.31186 -0.12843,-0.25436 -0.12843,-0.17905 " fill="#17becf" fill-opacity="0.85" stroke="#222" stroke-width="0.003"/>
  <polygon points="-0.044219,-0.59204 -0.12707,-0.54421 -0.044284,-0.49642 0.038563,-0.54425 " fill="#bcbd22" fill-opacity="0.85" stroke="#222" stroke-width="0.003"/>
  <polygon points="-0.48839,0.31222 -0.5654,0.35668 -0.46161,0.41661 -0.3846,0.37214 " fill="#8c564b" fill-opacity="0.85" stroke="#222" stroke-width="0.003"/>
  <polygon points="-0.17211,-0.34413 -0.072526,-0.28664 -0.12843,-0.25436 -0.22801,-0.31186 " fill="#17becf" fill-opacity="0.85" stroke="#222" stroke-width="0.003"/>
  <polygon points="-0.48839,0.31222 -0.3846,0.37214 -0.3846,0.28299 -0.48839,0.22306 " fill="#8c564b" fill-opacity="0.85" stroke="#222" stroke-width="0.003"/>
  <polygon points="-0.025261,0.24813 -0.025261,0.13653 0.07694,0.19554 0.07694,0.30714 " fill="#7f7f7f" fill-opacity="0.85" stroke="#222" stroke-width="0.003"/>
  <polygon points="-0.15235,0.41421 -0.15235,0.30172 -0.077118,0.34516 -0.077118,0.45764 " fill="#d62728" fill-opacity="0.85" stroke="#222" stroke-width="0.003"/>
  <polygon points="0.17242,0.079424 0.17242,-0.014296 0.24587,0.028109 0.24587,0.12183 " fill="#bcbd22" fill-opacity="0.85" stroke="#222" stroke-width="0.003"/>
  <polygon points="0.40684,0.082717 0.33071,0.12667 0.40549,0.16985 0.48163,0.12589 " fill="#ff7f0e" fill-opacity="0.85" stroke="#222" stroke-width="0.003"/>
  <circle cx="0.041283" cy="-0.19544" r="0.086179" fill="#17becf" stroke="#222" stroke-width="0.003"/>
  <polygon points="0.31571,0.081506 0.24587,0.12183 0.24587,0.028109 0.31571,-0.012214 " fill="#bcbd22" fill-opacity="0.85" stroke="#222" stroke-width="0.003"/>
  <polygon points="0.40684,0.082717 0.48163,0.12589 0.48163,0.026205 0.40684,-0.016972 " fill="#ff7f0e" fill-opacity="0.85" stroke="#222" stroke-width="0.003"/>
  <polygon points="0.24227,-0.054619 0.31571,-0.012214 0.24587,0.028109 0.17242,-0.014296 " fill="#bcbd22" fill-opacity="0.85" stroke="#222" stroke-width="0.003"/>
  <polygon points="0.40684,0.082717 0.40684,-0.016972 0.33071,0.026985 0.33071,0.12667 " fill="#ff7f0e" fill-opacity="0.85" stroke="#222" stroke-width="0.003"/>
  <polygon points="-0.026362,0.42834 -0.077118,0.45764 -0.077118,0.34516 -0.026362,0.31585 " fill="#d62728" fill-opacity="0.85" stroke="#222" stroke-width="0.003"/>
  <polygon points="-0.15804,0.0090345 -0.21294,0.040732 -0.12956,0.088872 -0.074661,0.057175 " fill="#e377c2" fill-opacity="0.85" stroke="#222" stroke-width="0.003"/>
  <polygon points="-0.072526,-0.21132 -0.12843,-0.17905 -0.12843,-0.25436 -0.072526,-0.28664 " fill="#17becf" fill-opacity="0.85" stroke="#222" stroke-width="0.003"/>
  <polygon points="-0.15804,0.0090345 -0.15804,-0.090468 -0.21294,-0.058771 -0.21294,0.040732 " fill="#e377c2" fill-opacity="0.85" stroke="#222" stroke-width="0.003"/>
  <polygon points="0.037052,0.10055 0.13925,0.15956 0.07694,0.19554 -0.025261,0.13653 " fill="#7f7f7f" fill-opacity="0.85" stroke="#222" stroke-width="0.003"/>
  <polygon points="0.13925,0.27116 0.07694,0.30714 0.07694,0.19554 0.13925,0.15956 " fill="#7f7f7f" fill-opacity="0.85" stroke="#222" stroke-width="0.003"/>
  <polygon points="-0.10159,0.27242 -0.026362,0.31585 -0.077118,0.34516 -0.15235,0.30172 " fill="#d62728" fill-opacity="0.85" stroke="#222" stroke-width="0.003"/>
  <polygon points="-0.15804,0.0090345 -0.074661,0.057175 -0.074661,-0.042327 -0.15804,-0.090468 " fill="#e377c2" fill-opacity="0.85" stroke="#222" stroke-width="0.003"/>
  <circle cx="0.24568" cy="0.21165" r="0.065356" fill="#1f77b4" stroke="#222" stroke-width="0.003"/>
  <polygon points="-0.093432,0.19907 -0.093432,0.1076 -0.14412,0.13686 -0.14412,0.22833 " fill="#bcbd22" fill-opacity="0.85" stroke="#222" stroke-width="0.003"/>
  <polygon points="-0.31908,-0.12787 -0.24152,-0.083093 -0.31844,-0.038684 -0.396,-0.08346 " fill="#17becf" fill-opacity="0.85" stroke="#222" stroke-width="0.003"/>
  <polygon points="-0.396,0.0049204 -0.396,-0.08346 -0.31844,-0.038684 -0.31844,0.049696 " fill="#17becf" fill-opacity="0.85" stroke="#222" stroke-width="0.003"/>
  <polygon points="0.062199,0.012687 0.062199,-0.084083 -0.00044325,-0.047916 -0.00044325,0.048853 " fill="#9467bd" fill-opacity="0.85" stroke="#222" stroke-width="0.003"/>
  <polygon points="-0.24152,0.0052877 -0.31844,0.049696 -0.31844,-0.038684 -0.24152,-0.083093 " fill="#17becf" fill-opacity="0.85" stroke="#222" stroke-width="0.003"/>
  <polygon points="-0.25781,0.21684 -0.25781,0.11981 -0.32531,0.15878 -0.32531,0.25581 " fill="#8c564b" fill-opacity="0.85" stroke="#222" stroke-width="0.003"/>
  <polygon points="0.062199,0.012687 -0.00044325,0.048853 0.091808,0.10211 0.15445,0.065948 " fill="#9467bd" fill-opacity="0.85" stroke="#222" stroke-width="0.003"/>
  <polygon points="-0.25781,0.21684 -0.32531,0.25581 -0.22814,0.31191 -0.16064,0.27294 " fill="#8c564b" fill-opacity="0.85" stroke="#222" stroke-width="0.003"/>
  <polygon points="-0.093432,0.19907 -0.14412,0.22833 -0.037089,0.29013 0.0136,0.26086 " fill="#bcbd22" fill-opacity="0.85" stroke="#222" stroke-width="0.003"/>
  <polygon points="0.062199,0.012687 0.15445,0.065948 0.15445,-0.030822 0.062199,-0.084083 " fill="#9467bd" fill-opacity="0.85" stroke="#222" stroke-width="0.003"/>
  <polygon points="-0.25781,0.21684 -0.16064,0.27294 -0.16064,0.17591 -0.25781,0.11981 " fill="#8c564b" fill-opacity="0.85" stroke="#222" stroke-width="0.003"/>
  <circle cx="0.50763" cy="0.21372" r="0.051292" fill="#7f7f7f" stroke="#222" stroke-width="0.003"/>
  <polygon points="-0.044219,-0.66349 0.038563,-0.6157 -0.044284,-0.56787 -0.12707,-0.61566 " fill="#bcbd22" fill-opacity="0.85" stroke="#222" stroke-width="0.003"/>
  <polygon points="-0.093432,0.19907 0.0136,0.26086 0.0136,0.16939 -0.093432,0.1076 " fill="#bcbd22" fill-opacity="0.85" stroke="#222" stroke-width="0.003"/>
  <circle cx="0.16432" cy="-0.3293" r="0.084669" fill="#7f7f7f" stroke="#222" stroke-width="0.003"/>
  <polygon points="0.3923,0.27277 0.3923,0.16365 0.32781,0.20088 0.32781,0.31 " fill="#e377c2" fill-opacity="0.85" stroke="#222" stroke-width="0.003"/>
  <polygon points="0.038563,-0.54425 -0.044284,-0.49642 -0.044284,-0.56787 0.038563,-0.6157 " fill="#bcbd22" fill-opacity="0.85" stroke="#222" stroke-width="0.003"/>
  <polygon points="-0.12707,-0.54421 -0.12707,-0.61566 -0.044284,-0.56787 -0.044284,-0.49642 " fill="#bcbd22" fill-opacity="0.85" stroke="#222" stroke-width="0.003"/>
  <polygon points="0.3923,0.27277 0.32781,0.31 0.43145,0.36983 0.49593,0.3326 " fill="#e377c2" fill-opacity="0.85" stroke="#222" stroke-width="0.003"/>
  <polygon points="-0.5654,0.35668 -0.5654,0.26752 -0.46161,0.32745 -0.46161,0.41661 " fill="#8c564b" fill-opacity="0.85" stroke="#222" stroke-width="0.003"/>
  <polygon points="-0.48839,0.22306 -0.3846,0.28299 -0.46161,0.32745 -0.5654,0.26752 " fill="#8c564b" fill-opacity="0.85" stroke="#222" stroke-width="0.003"/>
  <polygon points="0.3923,0.27277 0.49593,0.3326 0.49593,0.22349 0.3923,0.16365 " fill="#e377c2" fill-opacity="0.85" stroke="#222" stroke-width="0.003"/>
  <polygon points="-0.21294,0.040732 -0.21294,-0.058771 -0.12956,-0.01063 -0.12956,0.088872 " fill="#e377c2" fill-opacity="0.85" stroke="#222" stroke-width="0.003"/>
  <circle cx="-0.21926" cy="-0.47976" r="0.083438" fill="#17becf" stroke="#222" stroke-width="0.003"/>
  <polygon points="0.48163,0.12589 0.40549,0.16985 0.40549,0.070162 0.48163,0.026205 " fill="#ff7f0e" fill-opacity="0.85" stroke="#222" stroke-width="0.003"/>
  <polygon points="-0.46169,0.18445 -0.46169,0.1169 -0.52729,0.15477 -0.52729,0.22232 " fill="#2ca02c" fill-opacity="0.85" stroke="#222" stroke-width="0.003"/>
  <polygon points="-0.3846,0.37214 -0.46161,0.41661 -0.46161,0.32745 -0.3846,0.28299 " fill="#8c564b" fill-opacity="0.85" stroke="#222" stroke-width="0.003"/>
  <polygon points="0.33071,0.12667 0.33071,0.026985 0.40549,0.070162 0.40549,0.16985 " fill="#ff7f0e" fill-opacity="0.85" stroke="#222" stroke-width="0.003"/>
  <polygon points="-0.46169,0.18445 -0.3865,0.22786 -0.3865,0.16031 -0.46169,0.1169 " fill="#2ca02c" fill-opacity="0.85" stroke="#222" stroke-width="0.003"/>
  <polygon points="0.40684,-0.016972 0.48163,0.026205 0.40549,0.070162 0.33071,0.026985 " fill="#ff7f0e" fill-opacity="0.85" stroke="#222" stroke-width="0.003"/>
  <polygon points="-0.46169,0.18445 -0.52729,0.22232 -0.4521,0.26573 -0.3865,0.22786 " fill="#2ca02c" fill-opacity="0.85" stroke="#222" stroke-width="0.003"/>
  <polygon points="-0.074661,0.057175 -0.12956,0.088872 -0.12956,-0.01063 -0.074661,-0.042327 " fill="#e377c2" fill-opacity="0.85" stroke="#222" stroke-width="0.003"/>
  <polygon points="0.3111,-0.18746 0.38743,-0.14339 0.38743,-0.21742 0.3111,-0.26149 " fill="#2ca02c" fill-opacity="0.85" stroke="#222" stroke-width="0.003"/>
  <polygon points="-0.15804,-0.090468 -0.074661,-0.042327 -0.12956,-0.01063 -0.21294,-0.058771 " fill="#e377c2" fill-opacity="0.85" stroke="#222" stroke-width="0.003"/>
  <circle cx="-0.082556" cy="-0.44502" r="0.050336" fill="#e377c2" stroke="#222" stroke-width="0.003"/>
  <polygon points="0.3111,-0.18746 0.3111,-0.26149 0.23026,-0.21481 0.23026,-0.14079 " fill="#2ca02c" fill-opacity="0.85" stroke="#222" stroke-width="0.003"/>
  <circle cx="0.10716" cy="-0.46927" r="0.057819" fill="#17becf" stroke="#222" stroke-width="0.003"/>
  <polygon points="0.3111,-0.18746 0.23026,-0.14079 0.30659,-0.096717 0.38743,-0.14339 " fill="#2ca02c" fill-opacity="0.85" stroke="#222" stroke-width="0.003"/>
  <polygon points="-0.00044325,0.048853 -0.00044325,-0.047916 0.091808,0.0053446 0.091808,0.10211 " fill="#9467bd" fill-opacity="0.85" stroke="#222" stroke-width="0.003"/>
  <polygon points="-0.14412,0.22833 -0.14412,0.13686 -0.037089,0.19866 -0.037089,0.29013 " fill="#bcbd22" fill-opacity="0.85" stroke="#222" stroke-width="0.003"/>
  <polygon points="-0.34891,-0.20831 -0.3999,-0.17887 -0.32791,-0.13731 -0.27692,-0.16675 " fill="#bcbd22" fill-opacity="0.85" stroke="#222" stroke-width="0.003"/>
  <polygon points="-0.34891,-0.20831 -0.34891,-0.29274 -0.3999,-0.2633 -0.3999,-0.17887 " fill="#bcbd22" fill-opacity="0.85" stroke="#222" stroke-width="0.003"/>
  <polygon points="-0.35268,0.23233 -0.40348,0.26165 -0.31968,0.31003 -0.26889,0.28071 " fill="#7f7f7f" fill-opacity="0.85" stroke="#222" stroke-width="0.003"/>
  <polygon points="0.15182,0.27761 0.15182,0.19823 0.095313,0.23085 0.095313,0.31023 " fill="#1f77b4" fill-opacity="0.85" stroke="#222" stroke-width="0.003"/>
  <polygon points="-0.35268,0.23233 -0.35268,0.13201 -0.40348,0.16134 -0.40348,0.26165 " fill="#7f7f7f" fill-opacity="0.85" stroke="#222" stroke-width="0.003"/>
  <polygon points="0.15182,0.27761 0.095313,0.31023 0.16749,0.35191 0.224,0.31928 " fill="#1f77b4" fill-opacity="0.85" stroke="#222" stroke-width="0.003"/>
  <polygon points="-0.32531,0.25581 -0.32531,0.15878 -0.22814,0.21488 -0.22814,0.31191 " fill="#8c564b" fill-opacity="0.85" stroke="#222" stroke-width="0.003"/>
  <polygon points="0.16517,0.13685 0.16517,0.054768 0.10385,0.090171 0.10385,0.17225 " fill="#8c564b" fill-opacity="0.85" stroke="#222" stroke-width="0.003"/>
  <polygon points="0.062199,-0.084083 0.15445,-0.030822 0.091808,0.0053446 -0.00044325,-0.047916 " fill="#9467bd" fill-opacity="0.85" stroke="#222" stroke-width="0.003"/>
  <polygon points="0.15182,0.27761 0.224,0.31928 0.224,0.2399 0.15182,0.19823 " fill="#1f77b4" fill-opacity="0.85" stroke="#222" stroke-width="0.003"/>
  <polygon points="-0.34891,-0.20831 -0.27692,-0.16675 -0.27692,-0.25118 -0.34891,-0.29274 " fill="#bcbd22" fill-opacity="0.85" stroke="#222" stroke-width="0.003"/>
  <polygon points="0.16517,0.13685 0.10385,0.17225 0.17923,0.21577 0.24055,0.18037 " fill="#8c564b" fill-opacity="0.85" stroke="#222" stroke-width="0.003"/>
  <polygon points="-0.093432,0.1076 0.0136,0.16939 -0.037089,0.19866 -0.14412,0.13686 " fill="#bcbd22" fill-opacity="0.85" stroke="#222" stroke-width="0.003"/>
  <polygon points="0.15445,0.065948 0.091808,0.10211 0.091808,0.0053446 0.15445,-0.030822 " fill="#9467bd" fill-opacity="0.85" stroke="#222" stroke-width="0.003"/>
  <polygon points="-0.25781,0.11981 -0.16064,0.17591 -0.22814,0.21488 -0.32531,0.15878 " fill="#8c564b" fill-opacity="0.85" stroke="#222" stroke-width="0.003"/>
  <polygon points="0.16517,0.13685 0.24055,0.18037 0.24055,0.09829 0.16517,0.054768 " fill="#8c564b" fill-opacity="0.85" stroke="#222" stroke-width="0.003"/>
  <polygon points="-0.35268,0.23233 -0.26889,0.28071 -0.26889,0.18039 -0.35268,0.13201 " fill="#7f7f7f" fill-opacity="0.85" stroke="#222" stroke-width="0.003"/>
  <polygon points="-0.16064,0.27294 -0.22814,0.31191 -0.22814,0.21488 -0.16064,0.17591 " fill="#8c564b" fill-opacity="0.85" stroke="#222" stroke-width="0.003"/>
  <circle cx="-0.23415" cy="0.45616" r="0.051827" fill="#9467bd" stroke="#222" stroke-width="0.003"/>
  <polygon points="0.0136,0.26086 -0.037089,0.29013 -0.037089,0.19866 0.0136,0.16939 " fill="#bcbd22" fill-opacity="0.85" stroke="#222" stroke-width="0.003"/>
  <polygon points="0.32781,0.31 0.32781,0.20088 0.43145,0.26072 0.43145,0.36983 " fill="#e377c2" fill-opacity="0.85" stroke="#222" stroke-width="0.003"/>
  <polygon points="0.2955,-0.40751 0.22371,-0.36606 0.30978,-0.31637 0.38157,-0.35782 " fill="#1f77b4" fill-opacity="0.85" stroke="#222" stroke-width="0.003"/>
  <polygon points="0.2955,-0.40751 0.2955,-0.51204 0.22371,-0.47059 0.22371,-0.36606 " fill="#1f77b4" fill-opacity="0.85" stroke="#222" stroke-width="0.003"/>
  <polygon points="-0.46169,0.1169 -0.3865,0.16031 -0.4521,0.19818 -0.52729,0.15477 " fill="#2ca02c" fill-opacity="0.85" stroke="#222" stroke-width="0.003"/>
  <polygon points="-0.22467,0.072326 -0.22467,-0.011176 -0.29855,0.031483 -0.29855,0.11499 " fill="#7f7f7f" fill-opacity="0.85" stroke="#222" stroke-width="0.003"/>
  <circle cx="-0.034952" cy="0.065573" r="0.050315" fill="#9467bd" stroke="#222" stroke-width="0.003"/>
  <polygon points="0.2955,-0.40751 0.38157,-0.35782 0.38157,-0.46235 0.2955,-0.51204 " fill="#1f77b4" fill-opacity="0.85" stroke="#222" stroke-width="0.003"/>
  <polygon points="-0.52729,0.22232 -0.52729,0.15477 -0.4521,0.19818 -0.4521,0.26573 " fill="#2ca02c" fill-opacity="0.85" stroke="#222" stroke-width="0.003"/>
  <polygon points="-0.3865,0.22786 -0.4521,0.26573 -0.4521,0.19818 -0.3865,0.16031 " fill="#2ca02c" fill-opacity="0.85" stroke="#222" stroke-width="0.003"/>
  <polygon points="0.3923,0.16365 0.49593,0.22349 0.43145,0.26072 0.32781,0.20088 " fill="#e377c2" fill-opacity="0.85" stroke="#222" stroke-width="0.003"/>
  <polygon points="-0.22467,0.072326 -0.13002,0.12697 -0.13002,0.043468 -0.22467,-0.011176 " fill="#7f7f7f" fill-opacity="0.85" stroke="#222" stroke-width="0.003"/>
  <polygon points="-0.22467,0.072326 -0.29855,0.11499 -0.20391,0.16963 -0.13002,0.12697 " fill="#7f7f7f" fill-opacity="0.85" stroke="#222" stroke-width="0.003"/>
  <polygon points="0.49593,0.3326 0.43145,0.36983 0.43145,0.26072 0.49593,0.22349 " fill="#e377c2" fill-opacity="0.85" stroke="#222" stroke-width="0.003"/>
  <circle cx="0.30746" cy="0.36189" r="0.062897" fill="#e377c2" stroke="#222" stroke-width="0.003"/>
  <circle cx="-0.13704" cy="-0.17832" r="0.065239" fill="#1f77b4" stroke="#222" stroke-width="0.003"/>
  <polygon points="0.3111,-0.26149 0.38743,-0.21742 0.30659,-0.17075 0.23026,-0.21481 " fill="#2ca02c" fill-opacity="0.85" stroke="#222" stroke-width="0.003"/>
  <polygon points="-0.3999,-0.17887 -0.3999,-0.2633 -0.32791,-0.22174 -0.32791,-0.13731 " fill="#bcbd22" fill-opacity="0.85" stroke="#222" stroke-width="0.003"/>
  <polygon points="0.095313,0.31023 0.095313,0.23085 0.16749,0.27253 0.16749,0.35191 " fill="#1f77b4" fill-opacity="0.85" stroke="#222" stroke-width="0.003"/>
  <polygon points="0.38743,-0.14339 0.30659,-0.096717 0.30659,-0.17075 0.38743,-0.21742 " fill="#2ca02c" fill-opacity="0.85" stroke="#222" stroke-width="0.003"/>
  <circle cx="-0.12501" cy="0.30258" r="0.08364" fill="#bcbd22" stroke="#222" stroke-width="0.003"/>
  <polygon points="0.23026,-0.14079 0.23026,-0.21481 0.30659,-0.17075 0.30659,-0.096717 " fill="#2ca02c" fill-opacity="0.85" stroke="#222" stroke-width="0.003"/>
  <polygon points="-0.40348,0.26165 -0.40348,0.16134 -0.31968,0.20972 -0.31968,0.31003 " fill="#7f7f7f" fill-opacity="0.85" stroke="#222" stroke-width="0.003"/>
  <polygon points="0.15182,0.19823 0.224,0.2399 0.16749,0.27253 0.095313,0.23085 " fill="#1f77b4" fill-opacity="0.85" stroke="#222" stroke-width="0.003"/>
  <polygon points="-0.27692,-0.16675 -0.32791,-0.13731 -0.32791,-0.22174 -0.27692,-0.25118 " fill="#bcbd22" fill-opacity="0.85" stroke="#222" stroke-width="0.003"/>
  <polygon points="-0.34891,-0.29274 -0.27692,-0.25118 -0.32791,-0.22174 -0.3999,-0.2633 " fill="#bcbd22" fill-opacity="0.85" stroke="#222" stroke-width="0.003"/>
  <polygon points="0.224,0.31928 0.16749,0.35191 0.16749,0.27253 0.224,0.2399 " fill="#1f77b4" fill-opacity="0.85" stroke="#222" stroke-width="0.003"/>
  <polygon points="0.10385,0.17225 0.10385,0.090171 0.17923,0.13369 0.17923,0.21577 " fill="#8c564b" fill-opacity="0.85" stroke="#222" stroke-width="0.003"/>
  <polygon points="0.16517,0.054768 0.24055,0.09829 0.17923,0.13369 0.10385,0.090171 " fill="#8c564b" fill-opacity="0.85" stroke="#222" stroke-width="0.003"/>
  <polygon points="0.24055,0.18037 0.17923,0.21577 0.17923,0.13369 0.24055,0.09829 " fill="#8c564b" fill-opacity="0.85" stroke="#222" stroke-width="0.003"/>
  <polygon points="-0.066135,-0.025309 -0.066135,-0.095878 -0.13198,-0.057864 -0.13198,0.012705 " fill="#17becf" fill-opacity="0.85" stroke="#222" stroke-width="0.003"/>
  <polygon points="-0.26889,0.28071 -0.31968,0.31003 -0.31968,0.20972 -0.26889,0.18039 " fill="#7f7f7f" fill-opacity="0.85" stroke="#222" stroke-width="0.003"/>
  <polygon points="-0.35268,0.13201 -0.26889,0.18039 -0.31968,0.20972 -0.40348,0.16134 " fill="#7f7f7f" fill-opacity="0.85" stroke="#222" stroke-width="0.003"/>
  <polygon points="-0.066135,-0.025309 0.012113,0.019868 0.012113,-0.050701 -0.066135,-0.095878 " fill="#17becf" fill-opacity="0.85" stroke="#222" stroke-width="0.003"/>
  <polygon points="0.27822,0.24142 0.27822,0.15758 0.21131,0.19621 0.21131,0.28005 " fill="#1f77b4" fill-opacity="0.85" stroke="#222" stroke-width="0.003"/>
  <polygon points="-0.090889,0.51016 -0.090889,0.42408 -0.14519,0.45543 -0.14519,0.54151 " fill="#d62728" fill-opacity="0.85" stroke="#222" stroke-width="0.003"/>
  <polygon points="0.38379,-0.16944 0.33241,-0.13978 0.40471,-0.09804 0.45608,-0.1277 " fill="#ff7f0e" fill-opacity="0.85" stroke="#222" stroke-width="0.003"/>
  <polygon points="-0.066135,-0.025309 -0.13198,0.012705 -0.05373,0.057882 0.012113,0.019868 " fill="#17becf" fill-opacity="0.85" stroke="#222" stroke-width="0.003"/>
  <polygon points="0.38379,-0.16944 0.38379,-0.25596 0.33241,-0.2263 0.33241,-0.13978 " fill="#ff7f0e" fill-opacity="0.85" stroke="#222" stroke-width="0.003"/>
  <circle cx="0.025494" cy="-0.21666" r="0.067815" fill="#2ca02c" stroke="#222" stroke-width="0.003"/>
  <polygon points="0.22968,0.44905 0.22968,0.34001 0.15072,0.3856 0.15072,0.49464 " fill="#8c564b" fill-opacity="0.85" stroke="#222" stroke-width="0.003"/>
  <circle cx="0.16022" cy="-0.049314" r="0.050253" fill="#1f77b4" stroke="#222" stroke-width="0.003"/>
  <circle cx="0.053223" cy="0.34518" r="0.060486" fill="#1f77b4" stroke="#222" stroke-width="0.003"/>
  <polygon points="0.38379,-0.16944 0.45608,-0.1277 0.45608,-0.21422 0.38379,-0.25596 " fill="#ff7f0e" fill-opacity="0.85" stroke="#222" stroke-width="0.003"/>
  <polygon points="0.22968,0.44905 0.15072,0.49464 0.26207,0.55893 0.34104,0.51334 " fill="#8c564b" fill-opacity="0.85" stroke="#222" stroke-width="0.003"/>
  <polygon points="0.27822,0.24142 0.21131,0.28005 0.31599,0.34048 0.3829,0.30185 " fill="#1f77b4" fill-opacity="0.85" stroke="#222" stroke-width="0.003"/>
  <polygon points="-0.090889,0.51016 -0.14519,0.54151 -0.03499,0.60513 0.019309,0.57378 " fill="#d62728" fill-opacity="0.85" stroke="#222" stroke-width="0.003"/>
  <polygon points="0.27822,0.24142 0.3829,0.30185 0.3829,0.21802 0.27822,0.15758 " fill="#1f77b4" fill-opacity="0.85" stroke="#222" stroke-width="0.003"/>
  <polygon points="0.22968,0.44905 0.34104,0.51334 0.34104,0.40431 0.22968,0.34001 " fill="#8c564b" fill-opacity="0.85" stroke="#222" stroke-width="0.003"/>
  <polygon points="0.22371,-0.36606 0.22371,-0.47059 0.30978,-0.4209 0.30978,-0.31637 " fill="#1f77b4" fill-opacity="0.85" stroke="#222" stroke-width="0.003"/>
  <polygon points="-0.090889,0.51016 0.019309,0.57378 0.019309,0.4877 -0.090889,0.42408 " fill="#d62728" fill-opacity="0.85" stroke="#222" stroke-width="0.003"/>
  <polygon points="-0.29301,-0.38961 -0.29301,-0.45799 -0.36138,-0.41852 -0.36138,-0.35013 " fill="#8c564b" fill-opacity="0.85" stroke="#222" stroke-width="0.003"/>
  <polygon points="-0.29301,-0.38961 -0.22203,-0.34863 -0.22203,-0.41701 -0.29301,-0.45799 " fill="#8c564b" fill-opacity="0.85" stroke="#222" stroke-width="0.003"/>
  <polygon points="0.38157,-0.35782 0.30978,-0.31637 0.30978,-0.4209 0.38157,-0.46235 " fill="#1f77b4" fill-opacity="0.85" stroke="#222" stroke-width="0.003"/>
  <polygon points="-0.22467,-0.011176 -0.13002,0.043468 -0.20391,0.086127 -0.29855,0.031483 " fill="#7f7f7f" fill-opacity="0.85" stroke="#222" stroke-width="0.003"/>
  <polygon points="0.2955,-0.51204 0.38157,-0.46235 0.30978,-0.4209 0.22371,-0.47059 " fill="#1f77b4" fill-opacity="0.85" stroke="#222" stroke-width="0.003"/>
  <polygon points="-0.29855,0.11499 -0.29855,0.031483 -0.20391,0.086127 -0.20391,0.16963 " fill="#7f7f7f" fill-opacity="0.85" stroke="#222" stroke-width="0.003"/>
  <polygon points="-0.29301,-0.38961 -0.36138,-0.35013 -0.2904,-0.30915 -0.22203,-0.34863 " fill="#8c564b" fill-opacity="0.85" stroke="#222" stroke-width="0.003"/>
  <circle cx="0.043193" cy="0.16071" r="0.059924" fill="#ff7f0e" stroke="#222" stroke-width="0.003"/>
  <polygon points="-0.13002,0.12697 -0.20391,0.16963 -0.20391,0.086127 -0.13002,0.043468 " fill="#7f7f7f" fill-opacity="0.85" stroke="#222" stroke-width="0.003"/>
  <circle cx="-0.4021" cy="-0.10061" r="0.083433" fill="#2ca02c" stroke="#222" stroke-width="0.003"/>
  <circle cx="0.20869" cy="-0.2998" r="0.075338" fill="#9467bd" stroke="#222" stroke-width="0.003"/>
  <polygon points="-0.16618,0.18559 -0.088229,0.23059 -0.088229,0.1441 -0.16618,0.099094 " fill="#d62728" fill-opacity="0.85" stroke="#222" stroke-width="0.003"/>
  <polygon points="0.49039,-0.029797 0.40789,0.017837 0.48403,0.061798 0.56654,0.014165 " fill="#bcbd22" fill-opacity="0.85" stroke="#222" stroke-width="0.003"/>
  <polygon points="-0.16618,0.18559 -0.16618,0.099094 -0.24909,0.14696 -0.24909,0.23346 " fill="#d62728" fill-opacity="0.85" stroke="#222" stroke-width="0.003"/>
  <polygon points="0.49039,-0.029797 0.56654,0.014165 0.56654,-0.08623 0.49039,-0.13019 " fill="#bcbd22" fill-opacity="0.85" stroke="#222" stroke-width="0.003"/>
  <polygon points="-0.16618,0.18559 -0.24909,0.23346 -0.17114,0.27846 -0.088229,0.23059 " fill="#d62728" fill-opacity="0.85" stroke="#222" stroke-width="0.003"/>
  <polygon points="0.10965,-0.14281 0.10965,-0.21289 0.03493,-0.16975 0.03493,-0.099674 " fill="#8c564b" fill-opacity="0.85" stroke="#222" stroke-width="0.003"/>
  <polygon points="0.10965,-0.14281 0.18662,-0.098371 0.18662,-0.16845 0.10965,-0.21289 " fill="#8c564b" fill-opacity="0.85" stroke="#222" stroke-width="0.003"/>
  <polygon points="0.49039,-0.029797 0.49039,-0.13019 0.40789,-0.082559 0.40789,0.017837 " fill="#bcbd22" fill-opacity="0.85" stroke="#222" stroke-width="0.003"/>
  <polygon points="-0.066135,-0.095878 0.012113,-0.050701 -0.05373,-0.012687 -0.13198,-0.057864 " fill="#17becf" fill-opacity="0.85" stroke="#222" stroke-width="0.003"/>
  <polygon points="0.33241,-0.13978 0.33241,-0.2263 0.40471,-0.18456 0.40471,-0.09804 " fill="#ff7f0e" fill-opacity="0.85" stroke="#222" stroke-width="0.003"/>
  <polygon points="-0.13198,0.012705 -0.13198,-0.057864 -0.05373,-0.012687 -0.05373,0.057882 " fill="#17becf" fill-opacity="0.85" stroke="#222" stroke-width="0.003"/>
  <polygon points="0.10965,-0.14281 0.03493,-0.099674 0.11191,-0.055232 0.18662,-0.098371 " fill="#8c564b" fill-opacity="0.85" stroke="#222" stroke-width="0.003"/>
  <polygon points="0.32576,0.06045 0.32576,-0.012745 0.24387,0.034535 0.24387,0.10773 " fill="#e377c2" fill-opacity="0.85" stroke="#222" stroke-width="0.003"/>
  <polygon points="-0.47376,-0.34343 -0.47376,-0.42678 -0.54317,-0.38671 -0.54317,-0.30336 " fill="#7f7f7f" fill-opacity="0.85" stroke="#222" stroke-width="0.003"/>
  <polygon points="0.012113,0.019868 -0.05373,0.057882 -0.05373,-0.012687 0.012113,-0.050701 " fill="#17becf" fill-opacity="0.85" stroke="#222" stroke-width="0.003"/>
  <circle cx="-0.13546" cy="-0.42819" r="0.077642" fill="#1f77b4" stroke="#222" stroke-width="0.003"/>
  <polygon points="0.45608,-0.1277 0.40471,-0.09804 0.40471,-0.18456 0.45608,-0.21422 " fill="#ff7f0e" fill-opacity="0.85" stroke="#222" stroke-width="0.003"/>
  <polygon points="0.38379,-0.25596 0.45608,-0.21422 0.40471,-0.18456 0.33241,-0.2263 " fill="#ff7f0e" fill-opacity="0.85" stroke="#222" stroke-width="0.003"/>
  <polygon points="-0.14519,0.54151 -0.14519,0.45543 -0.03499,0.51905 -0.03499,0.60513 " fill="#d62728" fill-opacity="0.85" stroke="#222" stroke-width="0.003"/>
  <polygon points="-0.47376,-0.34343 -0.54317,-0.30336 -0.44314,-0.24561 -0.37373,-0.28568 " fill="#7f7f7f" fill-opacity="0.85" stroke="#222" stroke-width="0.003"/>
  <polygon points="0.32576,0.06045 0.43785,0.12517 0.43785,0.051974 0.32576,-0.012745 " fill="#e377c2" fill-opacity="0.85" stroke="#222" stroke-width="0.003"/>
  <polygon points="-0.47376,-0.34343 -0.37373,-0.28568 -0.37373,-0.36904 -0.47376,-0.42678 " fill="#7f7f7f" fill-opacity="0.85" stroke="#222" stroke-width="0.003"/>
  <polygon points="0.21131,0.28005 0.21131,0.19621 0.31599,0.25665 0.31599,0.34048 " fill="#1f77b4" fill-opacity="0.85" stroke="#222" stroke-width="0.003"/>
  <polygon points="0.27822,0.15758 0.3829,0.21802 0.31599,0.25665 0.21131,0.19621 " fill="#1f77b4" fill-opacity="0.85" stroke="#222" stroke-width="0.003"/>
  <polygon points="0.32576,0.06045 0.24387,0.10773 0.35596,0.17245 0.43785,0.12517 " fill="#e377c2" fill-opacity="0.85" stroke="#222" stroke-width="0.003"/>
  <polygon points="-0.090889,0.42408 0.019309,0.4877 -0.03499,0.51905 -0.14519,0.45543 " fill="#d62728" fill-opacity="0.85" stroke="#222" stroke-width="0.003"/>
  <polygon points="0.21212,0.30744 0.21212,0.20788 0.14324,0.24765 0.14324,0.34721 " fill="#bcbd22" fill-opacity="0.85" stroke="#222" stroke-width="0.003"/>
  <polygon points="-0.29301,-0.45799 -0.22203,-0.41701 -0.2904,-0.37754 -0.36138,-0.41852 " fill="#8c564b" fill-opacity="0.85" stroke="#222" stroke-width="0.003"/>
  <polygon points="0.21212,0.30744 0.14324,0.34721 0.23325,0.39918 0.30214,0.35941 " fill="#bcbd22" fill-opacity="0.85" stroke="#222" stroke-width="0.003"/>
  <polygon points="-0.36138,-0.35013 -0.36138,-0.41852 -0.2904,-0.37754 -0.2904,-0.30915 " fill="#8c564b" fill-opacity="0.85" stroke="#222" stroke-width="0.003"/>
  <polygon points="-0.22203,-0.34863 -0.2904,-0.30915 -0.2904,-0.37754 -0.22203,-0.41701 " fill="#8c564b" fill-opacity="0.85" stroke="#222" stroke-width="0.003"/>
  <polygon points="0.15072,0.49464 0.15072,0.3856 0.26207,0.4499 0.26207,0.55893 " fill="#8c564b" fill-opacity="0.85" stroke="#222" stroke-width="0.003"/>
  <polygon points="0.3829,0.30185 0.31599,0.34048 0.31599,0.25665 0.3829,0.21802 " fill="#1f77b4" fill-opacity="0.85" stroke="#222" stroke-width="0.003"/>
  <polygon points="0.21212,0.30744 0.30214,0.35941 0.30214,0.25985 0.21212,0.20788 " fill="#bcbd22" fill-opacity="0.85" stroke="#222" stroke-width="0.003"/>
  <circle cx="-0.33841" cy="0.046376" r="0.074808" fill="#ff7f0e" stroke="#222" stroke-width="0.003"/>
  <polygon points="0.22968,0.34001 0.34104,0.40431 0.26207,0.4499 0.15072,0.3856 " fill="#8c564b" fill-opacity="0.85" stroke="#222" stroke-width="0.003"/>
  <polygon points="0.019309,0.57378 -0.03499,0.60513 -0.03499,0.51905 0.019309,0.4877 " fill="#d62728" fill-opacity="0.85" stroke="#222" stroke-width="0.003"/>
  <circle cx="-0.17908" cy="-0.29896" r="0.056907" fill="#d62728" stroke="#222" stroke-width="0.003"/>
  <polygon points="0.34104,0.51334 0.26207,0.55893 0.26207,0.4499 0.34104,0.40431 " fill="#8c564b" fill-opacity="0.85" stroke="#222" stroke-width="0.003"/>
  <circle cx="-0.2154" cy="0.33899" r="0.060847" fill="#17becf" stroke="#222" stroke-width="0.003"/>
  <polygon points="0.10965,-0.21289 0.18662,-0.16845 0.11191,-0.12531 0.03493,-0.16975 " fill="#8c564b" fill-opacity="0.85" stroke="#222" stroke-width="0.003"/>
  <polygon points="-0.16618,0.099094 -0.088229,0.1441 -0.17114,0.19197 -0.24909,0.14696 " fill="#d62728" fill-opacity="0.85" stroke="#222" stroke-width="0.003"/>
  <circle cx="0.13018" cy="0.53116" r="0.051829" fill="#d62728" stroke="#222" stroke-width="0.003"/>
  <polygon points="-0.088229,0.23059 -0.17114,0.27846 -0.17114,0.19197 -0.088229,0.1441 " fill="#d62728" fill-opacity="0.85" stroke="#222" stroke-width="0.003"/>
  <polygon points="0.03493,-0.099674 0.03493,-0.16975 0.11191,-0.12531 0.11191,-0.055232 " fill="#8c564b" fill-opacity="0.85" stroke="#222" stroke-width="0.003"/>
  <polygon points="0.18662,-0.098371 0.11191,-0.055232 0.11191,-0.12531 0.18662,-0.16845 " fill="#8c564b" fill-opacity="0.85" stroke="#222" stroke-width="0.003"/>
  <polygon points="0.56654,0.014165 0.48403,0.061798 0.48403,-0.038597 0.56654,-0.08623 " fill="#bcbd22" fill-opacity="0.85" stroke="#222" stroke-width="0.003"/>
  <polygon points="-0.24909,0.23346 -0.24909,0.14696 -0.17114,0.19197 -0.17114,0.27846 " fill="#d62728" fill-opacity="0.85" stroke="#222" stroke-width="0.003"/>
  <polygon points="0.40789,0.017837 0.40789,-0.082559 0.48403,-0.038597 0.48403,0.061798 " fill="#bcbd22" fill-opacity="0.85" stroke="#222" stroke-width="0.003"/>
  <polygon points="0.49039,-0.13019 0.56654,-0.08623 0.48403,-0.038597 0.40789,-0.082559 " fill="#bcbd22" fill-opacity="0.85" stroke="#222" stroke-width="0.003"/>
  <polygon points="-0.26425,-0.23524 -0.26425,-0.31305 -0.33328,-0.2732 -0.33328,-0.19538 " fill="#d62728" fill-opacity="0.85" stroke="#222" stroke-width="0.003"/>
  <polygon points="-0.26425,-0.23524 -0.19229,-0.19369 -0.19229,-0.27151 -0.26425,-0.31305 " fill="#d62728" fill-opacity="0.85" stroke="#222" stroke-width="0.003"/>
  <polygon points="-0.26425,-0.23524 -0.33328,-0.19538 -0.26132,-0.15384 -0.19229,-0.19369 " fill="#d62728" fill-opacity="0.85" stroke="#222" stroke-width="0.003"/>
  <polygon points="-0.035036,-0.28753 -0.035036,-0.35753 -0.098914,-0.32065 -0.098914,-0.25065 " fill="#2ca02c" fill-opacity="0.85" stroke="#222" stroke-width="0.003"/>
  <polygon points="-0.54317,-0.30336 -0.54317,-0.38671 -0.44314,-0.32896 -0.44314,-0.24561 " fill="#7f7f7f" fill-opacity="0.85" stroke="#222" stroke-width="0.003"/>
  <polygon points="-0.47376,-0.42678 -0.37373,-0.36904 -0.44314,-0.32896 -0.54317,-0.38671 " fill="#7f7f7f" fill-opacity="0.85" stroke="#222" stroke-width="0.003"/>
  <polygon points="0.32576,-0.012745 0.43785,0.051974 0.35596,0.099254 0.24387,0.034535 " fill="#e377c2" fill-opacity="0.85" stroke="#222" stroke-width="0.003"/>
  <circle cx="-0.031169" cy="0.35886" r="0.075978" fill="#2ca02c" stroke="#222" stroke-width="0.003"/>
  <polygon points="-0.2294,0.10576 -0.2294,0.030437 -0.28281,0.061279 -0.28281,0.1366 " fill="#d62728" fill-opacity="0.85" stroke="#222" stroke-width="0.003"/>
  <polygon points="0.24387,0.10773 0.24387,0.034535 0.35596,0.099254 0.35596,0.17245 " fill="#e377c2" fill-opacity="0.85" stroke="#222" stroke-width="0.003"/>
  <polygon points="0.46838,-0.29392 0.38603,-0.24638 0.47348,-0.19589 0.55583,-0.24343 " fill="#2ca02c" fill-opacity="0.85" stroke="#222" stroke-width="0.003"/>
  <polygon points="-0.37373,-0.28568 -0.44314,-0.24561 -0.44314,-0.32896 -0.37373,-0.36904 " fill="#7f7f7f" fill-opacity="0.85" stroke="#222" stroke-width="0.003"/>
  <polygon points="-0.2294,0.10576 -0.28281,0.1366 -0.20705,0.18034 -0.15363,0.1495 " fill="#d62728" fill-opacity="0.85" stroke="#222" stroke-width="0.003"/>
  <polygon points="0.46838,-0.29392 0.46838,-0.40031 0.38603,-0.35277 0.38603,-0.24638 " fill="#2ca02c" fill-opacity="0.85" stroke="#222" stroke-width="0.003"/>
  <polygon points="0.46838,-0.29392 0.55583,-0.24343 0.55583,-0.34982 0.46838,-0.40031 " fill="#2ca02c" fill-opacity="0.85" stroke="#222" stroke-width="0.003"/>
  <polygon points="0.14324,0.34721 0.14324,0.24765 0.23325,0.29962 0.23325,0.39918 " fill="#bcbd22" fill-opacity="0.85" stroke="#222" stroke-width="0.003"/>
  <polygon points="-0.2294,0.10576 -0.15363,0.1495 -0.15363,0.074179 -0.2294,0.030437 " fill="#d62728" fill-opacity="0.85" stroke="#222" stroke-width="0.003"/>
  <polygon points="0.14096,0.038056 0.14096,-0.037431 0.08398,-0.0045368 0.08398,0.07095 " fill="#1f77b4" fill-opacity="0.85" stroke="#222" stroke-width="0.003"/>
  <polygon points="-0.035036,-0.28753 0.075805,-0.22354 0.075805,-0.29354 -0.035036,-0.35753 " fill="#2ca02c" fill-opacity="0.85" stroke="#222" stroke-width="0.003"/>
  <circle cx="0.24469" cy="-0.079452" r="0.0547" fill="#e377c2" stroke="#222" stroke-width="0.003"/>
  <polygon points="-0.035036,-0.28753 -0.098914,-0.25065 0.011928,-0.18666 0.075805,-0.22354 " fill="#2ca02c" fill-opacity="0.85" stroke="#222" stroke-width="0.003"/>
  <polygon points="0.43785,0.12517 0.35596,0.17245 0.35596,0.099254 0.43785,0.051974 " fill="#e377c2" fill-opacity="0.85" stroke="#222" stroke-width="0.003"/>
  <polygon points="0.14096,0.038056 0.08398,0.07095 0.15887,0.11419 0.21584,0.081292 " fill="#1f77b4" fill-opacity="0.85" stroke="#222" stroke-width="0.003"/>
  <polygon points="0.21212,0.20788 0.30214,0.25985 0.23325,0.29962 0.14324,0.24765 " fill="#bcbd22" fill-opacity="0.85" stroke="#222" stroke-width="0.003"/>
  <polygon points="0.30214,0.35941 0.23325,0.39918 0.23325,0.29962 0.30214,0.25985 " fill="#bcbd22" fill-opacity="0.85" stroke="#222" stroke-width="0.003"/>
  <polygon points="0.14096,0.038056 0.21584,0.081292 0.21584,0.0058048 0.14096,-0.037431 " fill="#1f77b4" fill-opacity="0.85" stroke="#222" stroke-width="0.003"/>
  <circle cx="0.046605" cy="0.18986" r="0.057777" fill="#17becf" stroke="#222" stroke-width="0.003"/>
  <polygon points="-0.16638,0.0042965 -0.16638,-0.08943 -0.22153,-0.057588 -0.22153,0.036138 " fill="#8c564b" fill-opacity="0.85" stroke="#222" stroke-width="0.003"/>
  <polygon points="-0.16638,0.0042965 -0.22153,0.036138 -0.12219,0.093494 -0.067038,0.061652 " fill="#8c564b" fill-opacity="0.85" stroke="#222" stroke-width="0.003"/>
  <polygon points="0.12688,0.27401 0.070339,0.30665 0.1458,0.35022 0.20234,0.31758 " fill="#17becf" fill-opacity="0.85" stroke="#222" stroke-width="0.003"/>
  <polygon points="-0.36345,-0.060159 -0.36345,-0.16725 -0.42265,-0.13308 -0.42265,-0.025985 " fill="#bcbd22" fill-opacity="0.85" stroke="#222" stroke-width="0.003"/>
  <polygon points="0.12688,0.27401 0.12688,0.17675 0.070339,0.20939 0.070339,0.30665 " fill="#17becf" fill-opacity="0.85" stroke="#222" stroke-width="0.003"/>
  <polygon points="-0.26425,-0.31305 -0.19229,-0.27151 -0.26132,-0.23165 -0.33328,-0.2732 " fill="#d62728" fill-opacity="0.85" stroke="#222" stroke-width="0.003"/>
  <polygon points="-0.33328,-0.19538 -0.33328,-0.2732 -0.26132,-0.23165 -0.26132,-0.15384 " fill="#d62728" fill-opacity="0.85" stroke="#222" stroke-width="0.003"/>
  <polygon points="-0.16638,0.0042965 -0.067038,0.061652 -0.067038,-0.032074 -0.16638,-0.08943 " fill="#8c564b" fill-opacity="0.85" stroke="#222" stroke-width="0.003"/>
  <polygon points="-0.19229,-0.19369 -0.26132,-0.15384 -0.26132,-0.23165 -0.19229,-0.27151 " fill="#d62728" fill-opacity="0.85" stroke="#222" stroke-width="0.003"/>
  <polygon points="-0.36345,-0.060159 -0.42265,-0.025985 -0.30975,0.039196 -0.25056,0.0050211 " fill="#bcbd22" fill-opacity="0.85" stroke="#222" stroke-width="0.003"/>
  <polygon points="0.12688,0.27401 0.20234,0.31758 0.20234,0.22031 0.12688,0.17675 " fill="#17becf" fill-opacity="0.85" stroke="#222" stroke-width="0.003"/>
  <polygon points="-0.28281,0.1366 -0.28281,0.061279 -0.20705,0.10502 -0.20705,0.18034 " fill="#d62728" fill-opacity="0.85" stroke="#222" stroke-width="0.003"/>
  <circle cx="0.17365" cy="-0.26745" r="0.062307" fill="#17becf" stroke="#222" stroke-width="0.003"/>
  <polygon points="-0.2294,0.030437 -0.15363,0.074179 -0.20705,0.10502 -0.28281,0.061279 " fill="#d62728" fill-opacity="0.85" stroke="#222" stroke-width="0.003"/>
  <polygon points="0.37162,-0.21095 0.37162,-0.29189 0.31587,-0.25971 0.31587,-0.17877 " fill="#d62728" fill-opacity="0.85" stroke="#222" stroke-width="0.003"/>
  <polygon points="-0.36345,-0.060159 -0.25056,0.0050211 -0.25056,-0.10207 -0.36345,-0.16725 " fill="#bcbd22" fill-opacity="0.85" stroke="#222" stroke-width="0.003"/>
  <polygon points="-0.035036,-0.35753 0.075805,-0.29354 0.011928,-0.25666 -0.098914,-0.32065 " fill="#2ca02c" fill-opacity="0.85" stroke="#222" stroke-width="0.003"/>
  <polygon points="0.25497,0.10923 0.25497,0.01608 0.19345,0.051595 0.19345,0.14475 " fill="#d62728" fill-opacity="0.85" stroke="#222" stroke-width="0.003"/>
  <polygon points="-0.15363,0.1495 -0.20705,0.18034 -0.20705,0.10502 -0.15363,0.074179 " fill="#d62728" fill-opacity="0.85" stroke="#222" stroke-width="0.003"/>
  <polygon points="-0.098914,-0.25065 -0.098914,-0.32065 0.011928,-0.25666 0.011928,-0.18666 " fill="#2ca02c" fill-opacity="0.85" stroke="#222" stroke-width="0.003"/>
  <polygon points="0.08398,0.07095 0.08398,-0.0045368 0.15887,0.038699 0.15887,0.11419 " fill="#1f77b4" fill-opacity="0.85" stroke="#222" stroke-width="0.003"/>
  <polygon points="0.14096,-0.037431 0.21584,0.0058048 0.15887,0.038699 0.08398,-0.0045368 " fill="#1f77b4" fill-opacity="0.85" stroke="#222" stroke-width="0.003"/>
  <polygon points="0.25497,0.10923 0.19345,0.14475 0.29195,0.20162 0.35347,0.1661 " fill="#d62728" fill-opacity="0.85" stroke="#222" stroke-width="0.003"/>
  <polygon points="0.21584,0.081292 0.15887,0.11419 0.15887,0.038699 0.21584,0.0058048 " fill="#1f77b4" fill-opacity="0.85" stroke="#222" stroke-width="0.003"/>
  <polygon points="0.37162,-0.21095 0.31587,-0.17877 0.42714,-0.11452 0.48289,-0.14671 " fill="#d62728" fill-opacity="0.85" stroke="#222" stroke-width="0.003"/>
  <polygon points="0.38603,-0.24638 0.38603,-0.35277 0.47348,-0.30228 0.47348,-0.19589 " fill="#2ca02c" fill-opacity="0.85" stroke="#222" stroke-width="0.003"/>
  <polygon points="0.25497,0.10923 0.35347,0.1661 0.35347,0.072951 0.25497,0.01608 " fill="#d62728" fill-opacity="0.85" stroke="#222" stroke-width="0.003"/>
  <polygon points="0.55583,-0.24343 0.47348,-0.19589 0.47348,-0.30228 0.55583,-0.34982 " fill="#2ca02c" fill-opacity="0.85" stroke="#222" stroke-width="0.003"/>
  <polygon points="0.46838,-0.40031 0.55583,-0.34982 0.47348,-0.30228 0.38603,-0.35277 " fill="#2ca02c" fill-opacity="0.85" stroke="#222" stroke-width="0.003"/>
  <polygon points="0.37162,-0.21095 0.48289,-0.14671 0.48289,-0.22765 0.37162,-0.29189 " fill="#d62728" fill-opacity="0.85" stroke="#222" stroke-width="0.003"/>
  <circle cx="0.079454" cy="-0.098948" r="0.061061" fill="#1f77b4" stroke="#222" stroke-width="0.003"/>
  <polygon points="0.075805,-0.22354 0.011928,-0.18666 0.011928,-0.25666 0.075805,-0.29354 " fill="#2ca02c" fill-opacity="0.85" stroke="#222" stroke-width="0.003"/>
  <polygon points="-0.22153,0.036138 -0.22153,-0.057588 -0.12219,-0.00023255 -0.12219,0.093494 " fill="#8c564b" fill-opacity="0.85" stroke="#222" stroke-width="0.003"/>
  <polygon points="0.070339,0.30665 0.070339,0.20939 0.1458,0.25296 0.1458,0.35022 " fill="#17becf" fill-opacity="0.85" stroke="#222" stroke-width="0.003"/>
  <polygon points="-0.16638,-0.08943 -0.067038,-0.032074 -0.12219,-0.00023255 -0.22153,-0.057588 " fill="#8c564b" fill-opacity="0.85" stroke="#222" stroke-width="0.003"/>
  <polygon points="-0.18235,0.20539 -0.18235,0.11214 -0.24111,0.14606 -0.24111,0.23931 " fill="#8c564b" fill-opacity="0.85" stroke="#222" stroke-width="0.003"/>
  <polygon points="0.20234,0.31758 0.1458,0.35022 0.1458,0.25296 0.20234,0.22031 " fill="#17becf" fill-opacity="0.85" stroke="#222" stroke-width="0.003"/>
  <polygon points="-0.18235,0.20539 -0.24111,0.23931 -0.15027,0.29175 -0.091511,0.25783 " fill="#8c564b" fill-opacity="0.85" stroke="#222" stroke-width="0.003"/>
  <polygon points="0.12688,0.17675 0.20234,0.22031 0.1458,0.25296 0.070339,0.20939 " fill="#17becf" fill-opacity="0.85" stroke="#222" stroke-width="0.003"/>
  <polygon points="-0.067038,0.061652 -0.12219,0.093494 -0.12219,-0.00023255 -0.067038,-0.032074 " fill="#8c564b" fill-opacity="0.85" stroke="#222" stroke-width="0.003"/>
  <polygon points="-0.42265,-0.025985 -0.42265,-0.13308 -0.30975,-0.067896 -0.30975,0.039196 " fill="#bcbd22" fill-opacity="0.85" stroke="#222" stroke-width="0.003"/>
  <circle cx="-0.0085957" cy="0.019882" r="0.063796" fill="#7f7f7f" stroke="#222" stroke-width="0.003"/>
  <polygon points="-0.18235,0.20539 -0.091511,0.25783 -0.091511,0.16459 -0.18235,0.11214 " fill="#8c564b" fill-opacity="0.85" stroke="#222" stroke-width="0.003"/>
  <polygon points="0.31246,-0.20771 0.31246,-0.27719 0.25423,-0.24356 0.25423,-0.17409 " fill="#e377c2" fill-opacity="0.85" stroke="#222" stroke-width="0.003"/>
  <polygon points="-0.36345,-0.16725 -0.25056,-0.10207 -0.30975,-0.067896 -0.42265,-0.13308 " fill="#bcbd22" fill-opacity="0.85" stroke="#222" stroke-width="0.003"/>
  <polygon points="0.31587,-0.17877 0.31587,-0.25971 0.42714,-0.19547 0.42714,-0.11452 " fill="#d62728" fill-opacity="0.85" stroke="#222" stroke-width="0.003"/>
  <polygon points="0.19345,0.14475 0.19345,0.051595 0.29195,0.10847 0.29195,0.20162 " fill="#d62728" fill-opacity="0.85" stroke="#222" stroke-width="0.003"/>
  <circle cx="-0.38776" cy="-0.25371" r="0.061022" fill="#9467bd" stroke="#222" stroke-width="0.003"/>
  <circle cx="-0.17401" cy="-0.16854" r="0.05174" fill="#ff7f0e" stroke="#222" stroke-width="0.003"/>
  <polygon points="-0.25056,0.0050211 -0.30975,0.039196 -0.30975,-0.067896 -0.25056,-0.10207 " fill="#bcbd22" fill-opacity="0.85" stroke="#222" stroke-width="0.003"/>
  <polygon points="0.37162,-0.29189 0.48289,-0.22765 0.42714,-0.19547 0.31587,-0.25971 " fill="#d62728" fill-opacity="0.85" stroke="#222" stroke-width="0.003"/>
  <polygon points="0.25497,0.01608 0.35347,0.072951 0.29195,0.10847 0.19345,0.051595 " fill="#d62728" fill-opacity="0.85" stroke="#222" stroke-width="0.003"/>
  <polygon points="0.31246,-0.20771 0.25423,-0.17409 0.35845,-0.11391 0.41669,-0.14753 " fill="#e377c2" fill-opacity="0.85" stroke="#222" stroke-width="0.003"/>
  <polygon points="0.31246,-0.20771 0.41669,-0.14753 0.41669,-0.21701 0.31246,-0.27719 " fill="#e377c2" fill-opacity="0.85" stroke="#222" stroke-width="0.003"/>
  <polygon points="-0.081335,0.31746 -0.010465,0.35837 -0.010465,0.27983 -0.081335,0.23891 " fill="#7f7f7f" fill-opacity="0.85" stroke="#222" stroke-width="0.003"/>
  <polygon points="0.35347,0.1661 0.29195,0.20162 0.29195,0.10847 0.35347,0.072951 " fill="#d62728" fill-opacity="0.85" stroke="#222" stroke-width="0.003"/>
  <polygon points="-0.081335,0.31746 -0.081335,0.23891 -0.15994,0.28429 -0.15994,0.36284 " fill="#7f7f7f" fill-opacity="0.85" stroke="#222" stroke-width="0.003"/>
  <polygon points="-0.081335,0.31746 -0.15994,0.36284 -0.089071,0.40376 -0.010465,0.35837 " fill="#7f7f7f" fill-opacity="0.85" stroke="#222" stroke-width="0.003"/>
  <circle cx="-0.038914" cy="-0.12597" r="0.069096" fill="#e377c2" stroke="#222" stroke-width="0.003"/>
  <polygon points="0.48289,-0.14671 0.42714,-0.11452 0.42714,-0.19547 0.48289,-0.22765 " fill="#d62728" fill-opacity="0.85" stroke="#222" stroke-width="0.003"/>
  <circle cx="-0.25946" cy="-0.26936" r="0.053404" fill="#9467bd" stroke="#222" stroke-width="0.003"/>
  <circle cx="0.083788" cy="0.3538" r="0.052207" fill="#1f77b4" stroke="#222" stroke-width="0.003"/>
  <polygon points="-0.24111,0.23931 -0.24111,0.14606 -0.15027,0.19851 -0.15027,0.29175 " fill="#8c564b" fill-opacity="0.85" stroke="#222" stroke-width="0.003"/>
  <polygon points="-0.18235,0.11214 -0.091511,0.16459 -0.15027,0.19851 -0.24111,0.14606 " fill="#8c564b" fill-opacity="0.85" stroke="#222" stroke-width="0.003"/>
  <polygon points="-0.091511,0.25783 -0.15027,0.29175 -0.15027,0.19851 -0.091511,0.16459 " fill="#8c564b" fill-opacity="0.85" stroke="#222" stroke-width="0.003"/>
  <polygon points="0.16542,-0.22186 0.16542,-0.30662 0.11274,-0.2762 0.11274,-0.19145 " fill="#ff7f0e" fill-opacity="0.85" stroke="#222" stroke-width="0.003"/>
  <polygon points="-0.03634,0.18696 -0.11893,0.23464 -0.031908,0.28489 0.050684,0.2372 " fill="#8c564b" fill-opacity="0.85" stroke="#222" stroke-width="0.003"/>
  <polygon points="-0.03634,0.18696 -0.03634,0.085525 -0.11893,0.13321 -0.11893,0.23464 " fill="#8c564b" fill-opacity="0.85" stroke="#222" stroke-width="0.003"/>
  <polygon points="0.16542,-0.22186 0.11274,-0.19145 0.19848,-0.14195 0.25115,-0.17236 " fill="#ff7f0e" fill-opacity="0.85" stroke="#222" stroke-width="0.003"/>
  <polygon points="-0.03634,0.18696 0.050684,0.2372 0.050684,0.13577 -0.03634,0.085525 " fill="#8c564b" fill-opacity="0.85" stroke="#222" stroke-width="0.003"/>
  <polygon points="0.25423,-0.17409 0.25423,-0.24356 0.35845,-0.18339 0.35845,-0.11391 " fill="#e377c2" fill-opacity="0.85" stroke="#222" stroke-width="0.003"/>
  <polygon points="0.31246,-0.27719 0.41669,-0.21701 0.35845,-0.18339 0.25423,-0.24356 " fill="#e377c2" fill-opacity="0.85" stroke="#222" stroke-width="0.003"/>
  <circle cx="0.141" cy="-0.074302" r="0.054234" fill="#9467bd" stroke="#222" stroke-width="0.003"/>
  <polygon points="0.16542,-0.22186 0.25115,-0.17236 0.25115,-0.25712 0.16542,-0.30662 " fill="#ff7f0e" fill-opacity="0.85" stroke="#222" stroke-width="0.003"/>
  <polygon points="-0.021358,0.39714 -0.021358,0.30586 -0.080001,0.33971 -0.080001,0.431 " fill="#2ca02c" fill-opacity="0.85" stroke="#222" stroke-width="0.003"/>
  <polygon points="-0.081335,0.23891 -0.010465,0.27983 -0.089071,0.32521 -0.15994,0.28429 " fill="#7f7f7f" fill-opacity="0.85" stroke="#222" stroke-width="0.003"/>
  <polygon points="-0.010465,0.35837 -0.089071,0.40376 -0.089071,0.32521 -0.010465,0.27983 " fill="#7f7f7f" fill-opacity="0.85" stroke="#222" stroke-width="0.003"/>
  <polygon points="0.41669,-0.14753 0.35845,-0.11391 0.35845,-0.18339 0.41669,-0.21701 " fill="#e377c2" fill-opacity="0.85" stroke="#222" stroke-width="0.003"/>
  <polygon points="-0.15994,0.36284 -0.15994,0.28429 -0.089071,0.32521 -0.089071,0.40376 " fill="#7f7f7f" fill-opacity="0.85" stroke="#222" stroke-width="0.003"/>
  <polygon points="-0.021358,0.39714 -0.080001,0.431 0.022677,0.49028 0.08132,0.45642 " fill="#2ca02c" fill-opacity="0.85" stroke="#222" stroke-width="0.003"/>
  <polygon points="-0.021358,0.39714 0.08132,0.45642 0.08132,0.36514 -0.021358,0.30586 " fill="#2ca02c" fill-opacity="0.85" stroke="#222" stroke-width="0.003"/>
  <circle cx="-0.28916" cy="-0.15326" r="0.073174" fill="#ff7f0e" stroke="#222" stroke-width="0.003"/>
  <polygon points="0.11274,-0.19145 0.11274,-0.2762 0.19848,-0.22671 0.19848,-0.14195 " fill="#ff7f0e" fill-opacity="0.85" stroke="#222" stroke-width="0.003"/>
  <circle cx="-0.019221" cy="-0.20906" r="0.053867" fill="#8c564b" stroke="#222" stroke-width="0.003"/>
  <polygon points="0.16542,-0.30662 0.25115,-0.25712 0.19848,-0.22671 0.11274,-0.2762 " fill="#ff7f0e" fill-opacity="0.85" stroke="#222" stroke-width="0.003"/>
  <circle cx="0.11952" cy="0.21458" r="0.074317" fill="#bcbd22" stroke="#222" stroke-width="0.003"/>
  <polygon points="0.25115,-0.17236 0.19848,-0.14195 0.19848,-0.22671 0.25115,-0.25712 " fill="#ff7f0e" fill-opacity="0.85" stroke="#222" stroke-width="0.003"/>
  <circle cx="0.20376" cy="0.038912" r="0.080237" fill="#7f7f7f" stroke="#222" stroke-width="0.003"/>
  <polygon points="-0.11893,0.23464 -0.11893,0.13321 -0.031908,0.18345 -0.031908,0.28489 " fill="#8c564b" fill-opacity="0.85" stroke="#222" stroke-width="0.003"/>
  <polygon points="0.050684,0.2372 -0.031908,0.28489 -0.031908,0.18345 0.050684,0.13577 " fill="#8c564b" fill-opacity="0.85" stroke="#222" stroke-width="0.003"/>
  <polygon points="-0.03634,0.085525 0.050684,0.13577 -0.031908,0.18345 -0.11893,0.13321 " fill="#8c564b" fill-opacity="0.85" stroke="#222" stroke-width="0.003"/>
  <polygon points="-0.080001,0.431 -0.080001,0.33971 0.022677,0.39899 0.022677,0.49028 " fill="#2ca02c" fill-opacity="0.85" stroke="#222" stroke-width="0.003"/>
  <circle cx="-0.14442" cy="0.043763" r="0.069258" fill="#ff7f0e" stroke="#222" stroke-width="0.003"/>
  <polygon points="-0.021358,0.30586 0.08132,0.36514 0.022677,0.39899 -0.080001,0.33971 " fill="#2ca02c" fill-opacity="0.85" stroke="#222" stroke-width="0.003"/>
  <polygon points="0.08132,0.45642 0.022677,0.49028 0.022677,0.39899 0.08132,0.36514 " fill="#2ca02c" fill-opacity="0.85" stroke="#222" stroke-width="0.003"/>
  <polygon points="-0.0076113,0.25925 -0.0076113,0.17851 -0.066505,0.21251 -0.066505,0.29326 " fill="#1f77b4" fill-opacity="0.85" stroke="#222" stroke-width="0.003"/>
  <polygon points="-0.0076113,0.25925 -0.066505,0.29326 0.0095859,0.33719 0.06848,0.30319 " fill="#1f77b4" fill-opacity="0.85" stroke="#222" stroke-width="0.003"/>
  <polygon points="-0.0076113,0.25925 0.06848,0.30319 0.06848,0.22244 -0.0076113,0.17851 " fill="#1f77b4" fill-opacity="0.85" stroke="#222" stroke-width="0.003"/>
  <circle cx="0.054302" cy="-0.04764" r="0.086986" fill="#2ca02c" stroke="#222" stroke-width="0.003"/>
  <circle cx="-0.07023" cy="-0.13263" r="0.058647" fill="#e377c2" stroke="#222" stroke-width="0.003"/>
  <polygon points="-0.066505,0.29326 -0.066505,0.21251 0.0095859,0.25644 0.0095859,0.33719 " fill="#1f77b4" fill-opacity="0.85" stroke="#222" stroke-width="0.003"/>
  <polygon points="-0.0076113,0.17851 0.06848,0.22244 0.0095859,0.25644 -0.066505,0.21251 " fill="#1f77b4" fill-opacity="0.85" stroke="#222" stroke-width="0.003"/>
  <polygon points="0.06848,0.30319 0.0095859,0.33719 0.0095859,0.25644 0.06848,0.22244 " fill="#1f77b4" fill-opacity="0.85" stroke="#222" stroke-width="0.003"/>
  <circle cx="-0.155" cy="-0.058026" r="0.055356" fill="#9467bd" stroke="#222" stroke-width="0.003"/>
  <circle cx="-0.037831" cy="0.031997" r="0.080389" fill="#9467bd" stroke="#222" stroke-width="0.003"/>
  <line x1="0" y1="-0" x2="0.707107" y2="0.408248" stroke="#444" stroke-width="0.005"/>
  <line x1="0" y1="-0.816497" x2="0.707107" y2="-0.408248" stroke="#444" stroke-width="0.005"/>
  <line x1="-0.707107" y1="0.408248" x2="0" y2="0.816497" stroke="#444" stroke-width="0.005"/>
  <line x1="-0.707107" y1="-0.408248" x2="0" y2="-0" stroke="#444" stroke-width="0.005"/>
  <line x1="0" y1="-0" x2="0" y2="-0.816497" stroke="#444" stroke-width="0.005"/>
  <line x1="0.707107" y1="0.408248" x2="0.707107" y2="-0.408248" stroke="#444" stroke-width="0.005"/>
  <line x1="-0.707107" y1="0.408248" x2="-0.707107" y2="-0.408248" stroke="#444" stroke-width="0.005"/>
  <line x1="0" y1="0.816497" x2="0" y2="-0" stroke="#444" stroke-width="0.005"/>
  <line x1="0" y1="-0" x2="-0.707107" y2="0.408248" stroke="#444" stroke-width="0.005"/>
  <line x1="0.707107" y1="0.408248" x2="0" y2="0.816497" stroke="#444" stroke-width="0.005"/>
  <line x1="0" y1="-0.816497" x2="-0.707107" y2="-0.408248" stroke="#444" stroke-width="0.005"/>
  <line x1="0.707107" y1="-0.408248" x2="0" y2="-0" stroke="#444" stroke-width="0.005"/>
</svg>
